# xmcd
#
# Track frame offsets:
#	150
#	2536
#	11815
#	25577
#	43115
#	59381
#	74799
#	95696
#	107965
#	125320
#	144458
#	157545
#	172354
#
# Disc length: 2480 seconds
#
# Revision: 1
# Processed by: cddbd v1.5.1PL0 Copyright (c) Steve Scherf et al.
# Submitted via: EasyCDDAExtractor 8.0.2.1
#
DISCID=af09ae0d
DTITLE=Alice Cooper - The Docks Toronto 22-08-05 Disc 1
DYEAR=2005
DGENRE=Hard Rock
TTITLE0=Lead In
TTITLE1=Department Of Youth
TTITLE2=No More Mr Nice Guy
TTITLE3=Dirty Diamonds
TTITLE4=Billion Dollar Babies
TTITLE5=Be My Lover
TTITLE6=Lost In America
TTITLE7=I Never Cry
TTITLE8=Woman Of Mass Distraction
TTITLE9=I'm Eighteen
TTITLE10=Between Old School and High School
TTITLE11=Sunsets Badies (All Got Rabies)
TTITLE12=Is It My Body
EXTD=
EXTT0=
EXTT1=
EXTT2=
EXTT3=
EXTT4=
EXTT5=
EXTT6=
EXTT7=
EXTT8=
EXTT9=
EXTT10=
EXTT11=
EXTT12=
PLAYORDER=
